<svg xmlns="http://www.w3.org/2000/svg" xmlns:xlink="http://www.w3.org/1999/xlink" width="100" zoomAndPan="magnify" viewBox="0 0 75 74.999997" height="100" preserveAspectRatio="xMidYMid meet" version="1.0"><defs><clipPath id="id1"><path d="M 10.101562 6 L 67.851562 6 L 67.851562 35 L 10.101562 35 Z M 10.101562 6 " clip-rule="nonzero"/></clipPath><clipPath id="id2"><path d="M 38 20 L 67.851562 20 L 67.851562 70 L 38 70 Z M 38 20 " clip-rule="nonzero"/></clipPath><clipPath id="id3"><path d="M 10.101562 20 L 39 20 L 39 70 L 10.101562 70 Z M 10.101562 20 " clip-rule="nonzero"/></clipPath><clipPath id="id4"><path d="M 10.101562 5.628906 L 67.851562 5.628906 L 67.851562 70.128906 L 10.101562 70.128906 Z M 10.101562 5.628906 " clip-rule="nonzero"/></clipPath></defs><g clip-path="url(#id1)"><path fill="rgb(0%, 0%, 0%)" d="M 38.976562 6.328125 L 10.855469 20.320312 L 38.976562 34.3125 L 67.101562 20.320312 Z M 38.976562 6.328125 " fill-opacity="1" fill-rule="nonzero"/></g><g clip-path="url(#id2)"><path fill="rgb(45.098877%, 45.098877%, 45.098877%)" d="M 38.976562 34.3125 L 38.976562 69.289062 L 67.101562 55.300781 L 67.101562 20.320312 Z M 38.976562 34.3125 " fill-opacity="1" fill-rule="nonzero"/></g><g clip-path="url(#id3)"><path fill="rgb(85.099792%, 85.099792%, 85.099792%)" d="M 38.976562 34.3125 L 38.976562 69.289062 L 10.855469 55.300781 L 10.855469 20.320312 Z M 38.976562 34.3125 " fill-opacity="1" fill-rule="nonzero"/></g><g clip-path="url(#id4)"><path stroke-linecap="butt" transform="matrix(1.406199, 0, 0, 1.399132, -3.20747, 3.02488)" fill="none" stroke-linejoin="miter" d="M 29.998631 2.374884 L 10.000678 12.375502 L 10.000678 37.374256 L 29.998631 47.374874 L 49.999361 37.374256 L 49.999361 12.375502 Z M 29.998631 2.374884 " stroke="rgb(30.198669%, 30.198669%, 30.198669%)" stroke-width="1" stroke-opacity="1" stroke-miterlimit="4"/></g></svg>